<svg xmlns="http://www.w3.org/2000/svg" viewBox="0 0 520 420"><defs><linearGradient id="g" x1="0" y1="0" x2="1" y2="1"><stop stop-color="#fff0f7"/><stop offset="1" stop-color="#e3f5ff"/></linearGradient></defs><rect width="520" height="420" rx="56" fill="url(#g)"/><path d="M170 170 128 66l94 55q38-17 76 0l94-55-40 104" fill="#f1bfd7" stroke="#2b2238" stroke-width="10"/><path d="M170 177c0-72 40-118 90-118s90 46 90 118v58c0 74-40 113-90 113s-90-39-90-113z" fill="#f7dccb" stroke="#2b2238" stroke-width="10"/><path d="M184 166q16-77 76-106 60 29 76 106-38-40-76-40t-76 40z" fill="#60486d"/><circle cx="224" cy="211" r="16" fill="#7661d5"/><circle cx="296" cy="211" r="16" fill="#7661d5"/><circle cx="228" cy="206" r="5" fill="#fff"/><circle cx="300" cy="206" r="5" fill="#fff"/><path d="M242 244q18 18 36 0" fill="none" stroke="#a05878" stroke-width="7" stroke-linecap="round"/><path d="M181 278q79 39 158 0l36 86H145z" fill="#fff" stroke="#2b2238" stroke-width="10"/><path d="M205 315l-55-45M315 315l55-45" stroke="#f7dccb" stroke-width="25" stroke-linecap="round"/><path d="M128 270l-20-30M110 275l-34-4M392 270l20-30M410 275l34-4" stroke="#7661d5" stroke-width="8" stroke-linecap="round"/></svg>